<svg width="44" height="36" viewBox="0 0 44 57" fill="none" xmlns="http://www.w3.org/2000/svg">
<path d="M30.985 0H1.963C1.155 0 0.5 0.655 0.5 1.926V55C0.5 55.345 1.155 56 1.963 56H42.037C42.845 56 43.5 55.345 43.5 55V12.978C43.5 12.282 43.407 12.058 43.243 11.893L31.607 0.257C31.442 0.093 31.218 0 30.985 0Z" fill="#E9E9E0"/>
<path d="M31.5 0.151001V12H43.349L31.5 0.151001Z" fill="#D9D7CA"/>
<path d="M42.037 56H1.963C1.155 56 0.5 55.345 0.5 54.537V39H43.5V54.537C43.5 55.345 42.845 56 42.037 56Z" fill="#5153FF"/>
<path d="M13.5 19V15C13.5 14.449 13.948 14 14.5 14C15.053 14 15.5 13.552 15.5 13C15.5 12.448 15.053 12 14.5 12C12.846 12 11.5 13.346 11.5 15V19C11.5 20.103 10.603 21 9.5 21C8.947 21 8.5 21.448 8.5 22C8.5 22.552 8.947 23 9.5 23C10.603 23 11.5 23.897 11.5 25V29C11.5 30.654 12.846 32 14.5 32C15.053 32 15.5 31.552 15.5 31C15.5 30.448 15.053 30 14.5 30C13.948 30 13.5 29.551 13.5 29V25C13.5 23.8 12.958 22.734 12.118 22C12.958 21.266 13.5 20.2 13.5 19Z" fill="#5153FF"/>
<path d="M21.5 20C22.3284 20 23 19.3284 23 18.5C23 17.6716 22.3284 17 21.5 17C20.6716 17 20 17.6716 20 18.5C20 19.3284 20.6716 20 21.5 20Z" fill="#5153FF"/>
<path d="M21.5 27C22.3284 27 23 26.3284 23 25.5C23 24.6716 22.3284 24 21.5 24C20.6716 24 20 24.6716 20 25.5C20 26.3284 20.6716 27 21.5 27Z" fill="#5153FF"/>
<path d="M33.5 21C32.397 21 31.5 20.103 31.5 19V15C31.5 13.346 30.154 12 28.5 12C27.947 12 27.5 12.448 27.5 13C27.5 13.552 27.947 14 28.5 14C29.052 14 29.5 14.449 29.5 15V19C29.5 20.2 30.042 21.266 30.882 22C30.042 22.734 29.5 23.8 29.5 25V29C29.5 29.551 29.052 30 28.5 30C27.947 30 27.5 30.448 27.5 31C27.5 31.552 27.947 32 28.5 32C30.154 32 31.5 30.654 31.5 29V25C31.5 23.897 32.397 23 33.5 23C34.053 23 34.5 22.552 34.5 22C34.5 21.448 34.053 21 33.5 21Z" fill="#5153FF"/>
<path d="M14.5713 44.2637C13.6325 44.2637 12.8942 44.5964 12.3564 45.2617C11.8187 45.9271 11.5498 46.8454 11.5498 48.0166C11.5498 49.2425 11.8073 50.1699 12.3223 50.7988C12.8418 51.4277 13.5915 51.7422 14.5713 51.7422C14.9951 51.7422 15.4053 51.7012 15.8018 51.6191C16.1982 51.5326 16.6107 51.4232 17.0391 51.291V52.6924C16.2552 52.9886 15.3665 53.1367 14.373 53.1367C12.9102 53.1367 11.7868 52.6947 11.0029 51.8105C10.2191 50.9219 9.82715 49.6527 9.82715 48.0029C9.82715 46.9639 10.0163 46.0547 10.3945 45.2754C10.7773 44.4961 11.3288 43.8991 12.0488 43.4844C12.7689 43.0697 13.6143 42.8623 14.585 42.8623C15.6058 42.8623 16.5492 43.0765 17.415 43.5049L16.8271 44.8652C16.4899 44.7057 16.1322 44.5667 15.7539 44.4482C15.3802 44.3252 14.986 44.2637 14.5713 44.2637ZM24.9551 50.2861C24.9551 51.1748 24.6338 51.8721 23.9912 52.3779C23.3486 52.8838 22.4622 53.1367 21.332 53.1367C20.2018 53.1367 19.2767 52.9613 18.5566 52.6104V51.0654C19.0124 51.2796 19.4954 51.4482 20.0059 51.5713C20.5208 51.6943 20.9993 51.7559 21.4414 51.7559C22.0885 51.7559 22.5648 51.6328 22.8701 51.3867C23.18 51.1406 23.335 50.8102 23.335 50.3955C23.335 50.0218 23.1937 49.7051 22.9111 49.4453C22.6286 49.1855 22.0452 48.8779 21.1611 48.5225C20.2497 48.1533 19.6071 47.7318 19.2334 47.2578C18.8597 46.7839 18.6729 46.2142 18.6729 45.5488C18.6729 44.7148 18.9691 44.0586 19.5615 43.5801C20.154 43.1016 20.9492 42.8623 21.9473 42.8623C22.9043 42.8623 23.8568 43.0719 24.8047 43.4912L24.2852 44.8242C23.3965 44.4505 22.6035 44.2637 21.9062 44.2637C21.3776 44.2637 20.9766 44.3799 20.7031 44.6123C20.4297 44.8402 20.293 45.1432 20.293 45.5215C20.293 45.7812 20.3477 46.0046 20.457 46.1914C20.5664 46.3737 20.7464 46.5469 20.9971 46.7109C21.2477 46.875 21.6989 47.0915 22.3506 47.3604C23.0843 47.6657 23.6221 47.9505 23.9639 48.2148C24.3057 48.4792 24.5563 48.7777 24.7158 49.1104C24.8753 49.443 24.9551 49.835 24.9551 50.2861ZM32.6523 50.2861C32.6523 51.1748 32.3311 51.8721 31.6885 52.3779C31.0459 52.8838 30.1595 53.1367 29.0293 53.1367C27.8991 53.1367 26.974 52.9613 26.2539 52.6104V51.0654C26.7096 51.2796 27.1927 51.4482 27.7031 51.5713C28.2181 51.6943 28.6966 51.7559 29.1387 51.7559C29.7858 51.7559 30.262 51.6328 30.5674 51.3867C30.8773 51.1406 31.0322 50.8102 31.0322 50.3955C31.0322 50.0218 30.891 49.7051 30.6084 49.4453C30.3258 49.1855 29.7425 48.8779 28.8584 48.5225C27.9469 48.1533 27.3044 47.7318 26.9307 47.2578C26.557 46.7839 26.3701 46.2142 26.3701 45.5488C26.3701 44.7148 26.6663 44.0586 27.2588 43.5801C27.8512 43.1016 28.6465 42.8623 29.6445 42.8623C30.6016 42.8623 31.554 43.0719 32.502 43.4912L31.9824 44.8242C31.0938 44.4505 30.3008 44.2637 29.6035 44.2637C29.0749 44.2637 28.6738 44.3799 28.4004 44.6123C28.127 44.8402 27.9902 45.1432 27.9902 45.5215C27.9902 45.7812 28.0449 46.0046 28.1543 46.1914C28.2637 46.3737 28.4437 46.5469 28.6943 46.7109C28.945 46.875 29.3962 47.0915 30.0479 47.3604C30.7816 47.6657 31.3193 47.9505 31.6611 48.2148C32.0029 48.4792 32.2536 48.7777 32.4131 49.1104C32.5726 49.443 32.6523 49.835 32.6523 50.2861Z" fill="white"/>
</svg>
