<svg width="44" height="36" viewBox="0 0 44 56" fill="none" xmlns="http://www.w3.org/2000/svg">
<path d="M30.985 0H1.963C1.155 0 0.5 0.655 0.5 1.926V55C0.5 55.345 1.155 56 1.963 56H42.037C42.845 56 43.5 55.345 43.5 55V12.978C43.5 12.282 43.407 12.058 43.243 11.893L31.607 0.257C31.442 0.093 31.218 0 30.985 0Z" fill="#E9E9E0"/>
<path d="M31.5 0.151001V12H43.349L31.5 0.151001Z" fill="#D9D7CA"/>
<path d="M42.037 56H1.963C1.155 56 0.5 55.345 0.5 54.537V39H43.5V54.537C43.5 55.345 42.845 56 42.037 56Z" fill="#EC6630"/>
<path d="M11.455 42.924V53H9.81397V48.461H5.45297V53H3.78497V42.924H5.45297V47.34H9.81397V42.924H11.455V42.924Z" fill="white"/>
<path d="M21.107 42.924V44.045H18.1V53H16.446V44.045H13.438V42.924H21.107Z" fill="white"/>
<path d="M30.705 42.924H32.373V53H30.705V46.068L28.449 51.673H27L24.7299 46.068V53H23.062V42.924H24.7299L27.7239 49.815L30.705 42.924Z" fill="white"/>
<path d="M36.57 42.924V51.756H41.205V53H34.902V42.924H36.57Z" fill="white"/>
<path d="M17.207 16.293C16.816 15.902 16.184 15.902 15.793 16.293L9.79301 22.293C9.40201 22.684 9.40201 23.316 9.79301 23.707L15.793 29.707C15.988 29.902 16.244 30 16.5 30C16.756 30 17.012 29.902 17.207 29.707C17.598 29.316 17.598 28.684 17.207 28.293L11.914 23L17.207 17.707C17.598 17.316 17.598 16.684 17.207 16.293Z" fill="#EC6630"/>
<path d="M35.207 22.293L29.207 16.293C28.816 15.902 28.184 15.902 27.793 16.293C27.402 16.684 27.402 17.316 27.793 17.707L33.086 23L27.793 28.293C27.402 28.684 27.402 29.316 27.793 29.707C27.988 29.902 28.244 30 28.5 30C28.756 30 29.012 29.902 29.207 29.707L35.207 23.707C35.598 23.316 35.598 22.684 35.207 22.293Z" fill="#EC6630"/>
</svg>
