<svg width="44" height="36" viewBox="0 0 44 56" fill="none" xmlns="http://www.w3.org/2000/svg">
<path d="M30.985 0H1.963C1.155 0 0.5 0.655 0.5 1.926V55C0.5 55.345 1.155 56 1.963 56H42.037C42.845 56 43.5 55.345 43.5 55V12.978C43.5 12.282 43.407 12.058 43.243 11.893L31.607 0.257C31.442 0.093 31.218 0 30.985 0Z" fill="#E9E9E0"/>
<path d="M31.5 0.151001V12H43.349L31.5 0.151001Z" fill="#D9D7CA"/>
<path d="M42.037 56H1.963C1.155 56 0.5 55.345 0.5 54.537V39H43.5V54.537C43.5 55.345 42.845 56 42.037 56Z" fill="#EEAF4B"/>
<path d="M20.021 42.719V50.567C20.021 51.041 19.934 51.44 19.761 51.763C19.587 52.086 19.355 52.346 19.064 52.542C18.772 52.738 18.437 52.875 18.059 52.952C17.681 53.029 17.29 53.068 16.89 53.068C16.689 53.068 16.454 53.047 16.186 53.006C15.918 52.965 15.639 52.902 15.352 52.815C15.065 52.728 14.789 52.63 14.525 52.521C14.26 52.412 14.037 52.289 13.855 52.152L14.552 51.045C14.643 51.108 14.773 51.175 14.942 51.243C15.111 51.311 15.295 51.375 15.496 51.434C15.696 51.494 15.906 51.545 16.125 51.591C16.344 51.637 16.549 51.659 16.74 51.659C17.222 51.659 17.608 51.565 17.895 51.379C18.182 51.193 18.334 50.875 18.353 50.429V42.718H20.021V42.719Z" fill="white"/>
<path d="M28.1839 50.238C28.1839 50.602 28.1089 50.956 27.9579 51.298C27.8069 51.64 27.5959 51.941 27.3219 52.2C27.0479 52.459 26.7109 52.667 26.3099 52.822C25.9089 52.977 25.4529 53.054 24.9429 53.054C24.7239 53.054 24.4989 53.042 24.2659 53.02C24.0329 52.998 23.7979 52.958 23.5619 52.904C23.3249 52.849 23.0989 52.774 22.8849 52.678C22.6709 52.582 22.4859 52.466 22.3309 52.329L22.6179 51.153C22.7449 51.226 22.9069 51.297 23.1029 51.365C23.2989 51.433 23.5009 51.497 23.7109 51.556C23.9199 51.616 24.1299 51.663 24.3399 51.7C24.5489 51.736 24.7449 51.755 24.9279 51.755C25.4839 51.755 25.9099 51.625 26.2059 51.365C26.5019 51.105 26.6499 50.72 26.6499 50.21C26.6499 49.9 26.5449 49.636 26.3359 49.417C26.1259 49.198 25.8639 49 25.5499 48.822C25.2359 48.644 24.8959 48.467 24.5309 48.289C24.1659 48.111 23.8239 47.901 23.5059 47.66C23.1869 47.419 22.9219 47.134 22.7129 46.806C22.5029 46.478 22.3989 46.068 22.3989 45.576C22.3989 45.13 22.4809 44.733 22.6449 44.387C22.8089 44.041 23.0299 43.746 23.3079 43.505C23.5859 43.264 23.9099 43.079 24.2789 42.951C24.6479 42.823 25.0379 42.76 25.4479 42.76C25.8669 42.76 26.2909 42.799 26.7189 42.876C27.1469 42.953 27.4929 43.079 27.7579 43.252C27.7029 43.37 27.6389 43.5 27.5669 43.642C27.4939 43.784 27.4249 43.915 27.3619 44.038C27.2979 44.161 27.2429 44.264 27.1979 44.346C27.1519 44.428 27.1249 44.474 27.1159 44.483C27.0609 44.456 26.9999 44.42 26.9309 44.374C26.8619 44.328 26.7639 44.283 26.6369 44.237C26.5089 44.191 26.3399 44.16 26.1309 44.141C25.9209 44.122 25.6519 44.127 25.3239 44.155C25.1409 44.174 24.9689 44.225 24.8039 44.312C24.6389 44.399 24.4929 44.505 24.3659 44.633C24.2379 44.761 24.1369 44.904 24.0649 45.064C23.9919 45.223 23.9559 45.377 23.9559 45.522C23.9559 45.886 24.0599 46.18 24.2699 46.404C24.4789 46.628 24.7389 46.823 25.0489 46.992C25.3589 47.161 25.6949 47.325 26.0609 47.484C26.4249 47.643 26.7649 47.838 27.0799 48.065C27.3949 48.292 27.6559 48.578 27.8659 48.919C28.0779 49.261 28.1839 49.7 28.1839 50.238Z" fill="white"/>
<path d="M13.5 19V15C13.5 14.449 13.948 14 14.5 14C15.053 14 15.5 13.552 15.5 13C15.5 12.448 15.053 12 14.5 12C12.846 12 11.5 13.346 11.5 15V19C11.5 20.103 10.603 21 9.5 21C8.947 21 8.5 21.448 8.5 22C8.5 22.552 8.947 23 9.5 23C10.603 23 11.5 23.897 11.5 25V29C11.5 30.654 12.846 32 14.5 32C15.053 32 15.5 31.552 15.5 31C15.5 30.448 15.053 30 14.5 30C13.948 30 13.5 29.551 13.5 29V25C13.5 23.8 12.958 22.734 12.118 22C12.958 21.266 13.5 20.2 13.5 19Z" fill="#EEAF4B"/>
<path d="M21.5 20C22.3284 20 23 19.3284 23 18.5C23 17.6716 22.3284 17 21.5 17C20.6716 17 20 17.6716 20 18.5C20 19.3284 20.6716 20 21.5 20Z" fill="#EEAF4B"/>
<path d="M33.5 21C32.397 21 31.5 20.103 31.5 19V15C31.5 13.346 30.154 12 28.5 12C27.947 12 27.5 12.448 27.5 13C27.5 13.552 27.947 14 28.5 14C29.052 14 29.5 14.449 29.5 15V19C29.5 20.2 30.042 21.266 30.882 22C30.042 22.734 29.5 23.8 29.5 25V29C29.5 29.551 29.052 30 28.5 30C27.947 30 27.5 30.448 27.5 31C27.5 31.552 27.947 32 28.5 32C30.154 32 31.5 30.654 31.5 29V25C31.5 23.897 32.397 23 33.5 23C34.053 23 34.5 22.552 34.5 22C34.5 21.448 34.053 21 33.5 21Z" fill="#EEAF4B"/>
<path d="M21.5 24C20.947 24 20.5 24.448 20.5 25V28C20.5 28.552 20.947 29 21.5 29C22.053 29 22.5 28.552 22.5 28V25C22.5 24.448 22.053 24 21.5 24Z" fill="#EEAF4B"/>
</svg>
