<svg width="44" height="36" viewBox="0 0 44 57" fill="none" xmlns="http://www.w3.org/2000/svg">
<path d="M30.985 0H1.963C1.155 0 0.5 0.655 0.5 1.926V55C0.5 55.345 1.155 56 1.963 56H42.037C42.845 56 43.5 55.345 43.5 55V12.978C43.5 12.282 43.407 12.058 43.243 11.893L31.607 0.257C31.442 0.093 31.218 0 30.985 0Z" fill="#E9E9E0"/>
<path d="M31.5 0.151001V12H43.349L31.5 0.151001Z" fill="#D9D7CA"/>
<path d="M42.037 56H1.963C1.155 56 0.5 55.345 0.5 54.537V39H43.5V54.537C43.5 55.345 42.845 56 42.037 56Z" fill="#34DAFF"/>
<path d="M5.95312 47.6543H7.08789C7.84896 47.6543 8.40039 47.513 8.74219 47.2305C9.08398 46.9479 9.25488 46.5286 9.25488 45.9727C9.25488 45.4076 9.07031 45.002 8.70117 44.7559C8.33203 44.5098 7.77604 44.3867 7.0332 44.3867H5.95312V47.6543ZM5.95312 49.0078V53H4.31934V43.0059H7.14258C8.43229 43.0059 9.38704 43.2474 10.0068 43.7305C10.6266 44.2135 10.9365 44.9427 10.9365 45.918C10.9365 47.1621 10.2894 48.0485 8.99512 48.5771L11.8184 53H9.95898L7.56641 49.0078H5.95312ZM16.4053 53.1367C15.2295 53.1367 14.3089 52.7949 13.6436 52.1113C12.9827 51.4232 12.6523 50.4775 12.6523 49.2744C12.6523 48.0394 12.96 47.0687 13.5752 46.3623C14.1904 45.6559 15.0358 45.3027 16.1113 45.3027C17.1094 45.3027 17.8978 45.6058 18.4766 46.2119C19.0553 46.818 19.3447 47.652 19.3447 48.7139V49.582H14.3066C14.3294 50.3158 14.5277 50.8809 14.9014 51.2773C15.2751 51.6693 15.8014 51.8652 16.4805 51.8652C16.9271 51.8652 17.3418 51.8242 17.7246 51.7422C18.112 51.6556 18.5267 51.5143 18.9688 51.3184V52.624C18.5768 52.8109 18.1803 52.943 17.7793 53.0205C17.3783 53.098 16.9202 53.1367 16.4053 53.1367ZM16.1113 46.5195C15.6009 46.5195 15.1908 46.6813 14.8809 47.0049C14.5755 47.3285 14.3932 47.8001 14.334 48.4199H17.7656C17.7565 47.7956 17.6061 47.3239 17.3145 47.0049C17.0228 46.6813 16.6217 46.5195 16.1113 46.5195ZM25.9004 53L25.5791 51.9473H25.5244C25.1598 52.4076 24.793 52.722 24.4238 52.8906C24.0547 53.0547 23.5807 53.1367 23.002 53.1367C22.2591 53.1367 21.6781 52.9362 21.2588 52.5352C20.8441 52.1341 20.6367 51.5667 20.6367 50.833C20.6367 50.0537 20.9261 49.4658 21.5049 49.0693C22.0837 48.6729 22.9655 48.4564 24.1504 48.4199L25.4561 48.3789V47.9756C25.4561 47.4925 25.3421 47.1325 25.1143 46.8955C24.891 46.654 24.5423 46.5332 24.0684 46.5332C23.681 46.5332 23.3096 46.5902 22.9541 46.7041C22.5986 46.818 22.2568 46.9525 21.9287 47.1074L21.4092 45.959C21.8193 45.7448 22.2682 45.583 22.7559 45.4736C23.2435 45.3597 23.7038 45.3027 24.1367 45.3027C25.0983 45.3027 25.8229 45.5124 26.3105 45.9316C26.8027 46.3509 27.0488 47.0094 27.0488 47.9072V53H25.9004ZM23.5078 51.9062C24.0911 51.9062 24.5583 51.7445 24.9092 51.4209C25.2646 51.0928 25.4424 50.6348 25.4424 50.0469V49.3906L24.4717 49.4316C23.7152 49.459 23.1637 49.5866 22.8174 49.8145C22.4756 50.0378 22.3047 50.3818 22.3047 50.8467C22.3047 51.1839 22.4049 51.446 22.6055 51.6328C22.806 51.8151 23.1068 51.9062 23.5078 51.9062ZM32.3398 53.1367C31.196 53.1367 30.3255 52.804 29.7285 52.1387C29.1361 51.4688 28.8398 50.5094 28.8398 49.2607C28.8398 47.9893 29.1497 47.0117 29.7695 46.3281C30.3939 45.6445 31.2939 45.3027 32.4697 45.3027C33.2673 45.3027 33.985 45.4508 34.623 45.7471L34.1377 47.0391C33.4587 46.7747 32.8981 46.6426 32.4561 46.6426C31.1481 46.6426 30.4941 47.5107 30.4941 49.2471C30.4941 50.0947 30.6559 50.7327 30.9795 51.1611C31.3076 51.585 31.7861 51.7969 32.415 51.7969C33.1305 51.7969 33.8073 51.6191 34.4453 51.2637V52.665C34.1582 52.8337 33.8506 52.9544 33.5225 53.0273C33.1989 53.1003 32.8047 53.1367 32.3398 53.1367ZM39.0391 51.8379C39.431 51.8379 39.8229 51.7764 40.2148 51.6533V52.8633C40.0371 52.9408 39.807 53.0046 39.5244 53.0547C39.2464 53.1094 38.957 53.1367 38.6562 53.1367C37.1341 53.1367 36.373 52.3346 36.373 50.7305V46.6562H35.3408V45.9453L36.4482 45.3574L36.9951 43.7578H37.9863V45.4395H40.1396V46.6562H37.9863V50.7031C37.9863 51.0905 38.082 51.3776 38.2734 51.5645C38.4694 51.7467 38.7246 51.8379 39.0391 51.8379Z" fill="white"/>
<path d="M21.9997 19.0846C20.7456 19.0846 19.7252 20.1054 19.7252 21.3595C19.7252 22.6141 20.7456 23.6345 21.9997 23.6345C23.2542 23.6345 24.2746 22.6141 24.2746 21.3595C24.2746 20.1055 23.2542 19.0846 21.9997 19.0846Z" fill="#34DAFF"/>
<path d="M34.9994 21.641C35.0168 20.8533 34.678 20.0956 33.9928 19.389C33.9928 19.3886 33.9928 19.3872 33.9928 19.3872C33.9928 18.7154 33.4464 18.1689 32.7741 18.1689C32.6604 18.1689 32.5477 18.1846 32.4385 18.2168C32.0183 17.9743 31.5581 17.7487 31.0685 17.5441C30.7423 17.4081 30.3721 17.272 29.9447 17.1306C30.859 13.8191 30.5247 11.3791 29.0138 10.411C27.4304 9.39413 24.8103 10.2906 21.9997 12.8417C19.19 10.292 16.5727 9.39199 14.9856 10.411C14.0243 11.0268 13.5293 12.2456 13.5481 13.9427C13.2474 14.1705 13.0666 14.5254 13.0666 14.9085C13.0666 15.3923 13.3521 15.821 13.7822 16.0157C13.8345 16.2717 13.8999 16.5487 13.9805 16.8544C10.8477 17.8033 9.03864 19.333 9.00062 21.078C8.96615 22.6462 10.3621 24.1016 12.9306 25.1745C13.2586 25.3123 13.631 25.4488 14.0616 25.5907C13.9403 26.0235 13.8467 26.4083 13.7765 26.7619C13.2349 29.4924 13.6645 31.4621 14.9862 32.3093C16.5782 33.3262 19.1923 32.4266 22.0003 29.8773C24.0308 31.7203 25.9692 32.7323 27.4801 32.7332C28.0584 32.7332 28.5745 32.5908 29.0148 32.3089C30.336 31.4621 30.7652 29.4924 30.2237 26.7619C30.1705 26.4938 30.1015 26.1984 30.0147 25.8677C33.1501 24.9181 34.9613 23.3875 34.9994 21.641ZM15.6471 31.2747C14.8058 30.7358 14.556 29.1376 14.9798 27C15.042 26.6872 15.1262 26.3403 15.2363 25.9465C16.4035 26.258 17.6799 26.4925 19.0392 26.6437C19.7123 27.5093 20.4082 28.3077 21.1118 29.0229C18.8458 31.063 16.7132 31.9567 15.6471 31.2747ZM15.6471 11.444C16.7101 10.7664 18.8458 11.6562 21.1118 13.6966C20.4382 14.3809 19.7722 15.1399 19.1295 15.9581C17.7179 16.0597 16.3918 16.253 15.1794 16.535C15.1235 16.3157 15.072 16.0968 15.025 15.8726C15.3218 15.6453 15.5026 15.2895 15.5026 14.9086C15.5026 14.4234 15.2125 13.9911 14.7847 13.7973C14.7851 12.9281 14.9494 11.8911 15.6471 11.444ZM15.5948 24.7731C15.828 24.0982 16.1059 23.4071 16.4246 22.7103C16.7312 23.2554 17.0538 23.7929 17.3881 24.3143C17.5904 24.6307 17.8021 24.9476 18.0276 25.2712C17.1644 25.1387 16.3498 24.9722 15.5948 24.7731ZM17.3886 18.4048C17.0525 18.9297 16.7307 19.4646 16.4291 20.0008C16.0836 19.2368 15.7846 18.4759 15.5353 17.7267C16.3517 17.5388 17.2231 17.3915 18.1387 17.2873C17.8791 17.6565 17.6285 18.0306 17.3886 18.4048ZM17.0954 21.3555C17.5094 20.5643 17.9551 19.7958 18.4219 19.0668C18.8256 18.4366 19.2768 17.7926 19.7637 17.149C20.5326 17.1061 21.3069 17.0931 22.0919 17.111C22.8321 17.1271 23.576 17.1692 24.3028 17.2376C24.7642 17.8521 25.1929 18.4662 25.5779 19.0663C26.0443 19.795 26.4904 20.5648 26.904 21.3556C26.4855 22.1585 26.0397 22.9305 25.5779 23.652C25.172 24.2853 24.7217 24.9293 24.2365 25.5693C23.4681 25.6114 22.6947 25.624 21.9075 25.6069C21.169 25.5917 20.4261 25.5492 19.6965 25.4807C19.2342 24.8658 18.8064 24.2508 18.4219 23.652C17.9606 22.9319 17.5148 22.1598 17.0954 21.3555ZM25.8604 25.4318C26.1204 25.0608 26.3723 24.6871 26.6109 24.3143C26.9456 23.7916 27.2688 23.2541 27.5744 22.7094C27.9244 23.4783 28.227 24.2414 28.4754 24.9893C27.6559 25.179 26.7801 25.3271 25.8604 25.4318ZM26.6109 18.4048C26.4063 18.0853 26.1947 17.7684 25.9709 17.4475C26.8284 17.579 27.6403 17.7451 28.3952 17.9438C28.162 18.6174 27.8859 19.3066 27.5704 20.0012C27.2697 19.4664 26.9483 18.9321 26.6109 18.4048ZM28.7538 16.7699C27.586 16.4589 26.3119 16.2262 24.9602 16.0754C24.2871 15.2098 23.5916 14.4114 22.8876 13.6971C25.1536 11.6566 27.2911 10.7669 28.3527 11.4445C29.3534 12.0858 29.4989 14.0653 28.7538 16.7699ZM22.1188 15.8837C21.882 15.8788 21.6461 15.8761 21.4125 15.8761C21.2004 15.8761 20.9896 15.878 20.7806 15.8824C21.1811 15.4134 21.5889 14.968 22.0006 14.5514C22.4289 14.9859 22.8518 15.4478 23.2636 15.9325C22.8599 15.9079 22.4808 15.8923 22.1188 15.8837ZM14.3264 18.0467C14.6732 19.0967 15.1396 20.2098 15.7138 21.3623C15.1901 22.4158 14.7556 23.4416 14.4208 24.4173C14.0333 24.2892 13.6989 24.1653 13.4031 24.0422C11.3922 23.2022 10.2049 22.1043 10.2272 21.1045C10.2519 19.952 11.7776 18.8192 14.3264 18.0467ZM21.8815 26.835C22.3322 26.8443 22.7798 26.8453 23.2197 26.8363C22.8192 27.3053 22.411 27.751 21.9997 28.1686C21.5727 27.7358 21.1498 27.274 20.7363 26.7866C21.1453 26.8112 21.5195 26.8269 21.8815 26.835ZM24.8699 26.7616C26.2819 26.6604 27.6111 26.4662 28.8285 26.1824C28.9078 26.4854 28.9709 26.7544 29.0201 27.0006C29.444 29.1372 29.1951 30.7354 28.3537 31.2747C27.2885 31.9568 25.1541 31.0617 22.8881 29.0236C23.5608 28.34 24.2258 27.5815 24.8699 26.7616ZM29.6632 24.6746C29.3118 23.6081 28.8495 22.4963 28.2851 21.3614C28.807 20.3145 29.2429 19.2879 29.5813 18.3032C29.9711 18.4326 30.2991 18.5534 30.5959 18.677C30.9445 18.8234 31.2748 18.9804 31.5818 19.1456C31.5648 19.2252 31.5563 19.3058 31.5563 19.3868C31.5563 20.0582 32.1032 20.6047 32.7741 20.6047C32.963 20.6047 33.1474 20.5604 33.3139 20.4766C33.6268 20.8638 33.7807 21.2455 33.7722 21.6148C33.7485 22.768 32.2192 23.9013 29.6632 24.6746Z" fill="#34DAFF"/>
</svg>
