<svg width="43" height="36" viewBox="0 0 43 57" fill="none" xmlns="http://www.w3.org/2000/svg">
<path d="M30.485 0H1.463C0.655 0 0 0.655 0 1.926V55C0 55.345 0.655 56 1.463 56H41.537C42.345 56 43 55.345 43 55V12.978C43 12.282 42.907 12.058 42.743 11.893L31.107 0.257C30.942 0.093 30.718 0 30.485 0Z" fill="#E9E9E0"/>
<path d="M31 0.151001V12H42.849L31 0.151001Z" fill="#D9D7CA"/>
<path d="M41.537 56H1.463C0.655 56 0 55.345 0 54.537V39H43V54.537C43 55.345 42.345 56 41.537 56Z" fill="#5488ED"/>
<path d="M18.7715 53H17.1377V44.4072H14.1982V43.0059H21.7109V44.4072H18.7715V53ZM29.0117 50.2861C29.0117 51.1748 28.6904 51.8721 28.0479 52.3779C27.4053 52.8838 26.5189 53.1367 25.3887 53.1367C24.2585 53.1367 23.3333 52.9613 22.6133 52.6104V51.0654C23.069 51.2796 23.5521 51.4482 24.0625 51.5713C24.5775 51.6943 25.056 51.7559 25.498 51.7559C26.1452 51.7559 26.6214 51.6328 26.9268 51.3867C27.2367 51.1406 27.3916 50.8102 27.3916 50.3955C27.3916 50.0218 27.2503 49.7051 26.9678 49.4453C26.6852 49.1855 26.1019 48.8779 25.2178 48.5225C24.3063 48.1533 23.6637 47.7318 23.29 47.2578C22.9163 46.7839 22.7295 46.2142 22.7295 45.5488C22.7295 44.7148 23.0257 44.0586 23.6182 43.5801C24.2106 43.1016 25.0059 42.8623 26.0039 42.8623C26.9609 42.8623 27.9134 43.0719 28.8613 43.4912L28.3418 44.8242C27.4531 44.4505 26.6602 44.2637 25.9629 44.2637C25.4342 44.2637 25.0332 44.3799 24.7598 44.6123C24.4863 44.8402 24.3496 45.1432 24.3496 45.5215C24.3496 45.7812 24.4043 46.0046 24.5137 46.1914C24.623 46.3737 24.8031 46.5469 25.0537 46.7109C25.3044 46.875 25.7555 47.0915 26.4072 47.3604C27.141 47.6657 27.6787 47.9505 28.0205 48.2148C28.3623 48.4792 28.613 48.7777 28.7725 49.1104C28.932 49.443 29.0117 49.835 29.0117 50.2861Z" fill="white"/>
<path d="M15.8613 32H12.8271V16.042H7.36816V13.4395H21.3203V16.042H15.8613V32ZM34.0989 26.96C34.0989 28.6104 33.5022 29.9053 32.3089 30.8447C31.1155 31.7842 29.4693 32.2539 27.3704 32.2539C25.2714 32.2539 23.5533 31.9281 22.2161 31.2764V28.4072C23.0624 28.805 23.9596 29.1182 24.9075 29.3467C25.8639 29.5752 26.7526 29.6895 27.5735 29.6895C28.7753 29.6895 29.6598 29.4609 30.2268 29.0039C30.8024 28.5469 31.0901 27.9333 31.0901 27.1631C31.0901 26.4691 30.8277 25.8809 30.303 25.3984C29.7783 24.916 28.6949 24.3447 27.053 23.6846C25.3603 22.999 24.1669 22.2161 23.4729 21.3359C22.7789 20.4557 22.4319 19.3978 22.4319 18.1621C22.4319 16.6133 22.982 15.3945 24.0823 14.5059C25.1826 13.6172 26.6595 13.1729 28.513 13.1729C30.2903 13.1729 32.0592 13.5622 33.8196 14.3408L32.8548 16.8164C31.2044 16.1224 29.7317 15.7754 28.4368 15.7754C27.455 15.7754 26.7102 15.9912 26.2024 16.4229C25.6946 16.846 25.4407 17.4089 25.4407 18.1113C25.4407 18.5938 25.5423 19.0085 25.7454 19.3555C25.9485 19.694 26.2828 20.0156 26.7483 20.3203C27.2138 20.625 28.0517 21.027 29.262 21.5264C30.6246 22.0934 31.6233 22.6224 32.2581 23.1133C32.8929 23.6042 33.3583 24.1585 33.6546 24.7764C33.9508 25.3942 34.0989 26.1221 34.0989 26.96Z" fill="#5488ED"/>
</svg>
